<svg width="45" height="46" viewBox="0 0 45 46" fill="none" xmlns="http://www.w3.org/2000/svg">
<rect y="0.0720215" width="45" height="45" rx="22.5" fill="#8F959E" fill-opacity="0.05"/>
<path d="M22.4091 23.5428C22.435 23.5428 22.4609 23.5428 22.4919 23.5428C22.5023 23.5428 22.5126 23.5428 22.523 23.5428C22.5385 23.5428 22.5592 23.5428 22.5748 23.5428C24.0917 23.517 25.3186 22.9837 26.2246 21.9638C28.2178 19.717 27.8865 15.8652 27.8502 15.4976C27.7208 12.7382 26.4162 11.4181 25.3393 10.802C24.5369 10.3412 23.5998 10.0927 22.5541 10.072H22.5178C22.5126 10.072 22.5023 10.072 22.4971 10.072H22.466C21.8914 10.072 20.7628 10.1652 19.6808 10.7813C18.5936 11.3974 17.2682 12.7175 17.1388 15.4976C17.1026 15.8652 16.7712 19.717 18.7644 21.9638C19.6652 22.9837 20.8922 23.517 22.4091 23.5428ZM18.5211 15.6271C18.5211 15.6115 18.5263 15.596 18.5263 15.5856C18.6971 11.8737 21.3323 11.475 22.4609 11.475H22.4816C22.4919 11.475 22.5075 11.475 22.523 11.475C23.9208 11.5061 26.2971 12.0756 26.4576 15.5856C26.4576 15.6012 26.4576 15.6167 26.4628 15.6271C26.4679 15.6633 26.8303 19.1837 25.184 21.0371C24.5317 21.7723 23.662 22.1347 22.5178 22.145C22.5075 22.145 22.5023 22.145 22.4919 22.145C22.4816 22.145 22.4764 22.145 22.466 22.145C21.3271 22.1347 20.4521 21.7723 19.805 21.0371C18.1639 19.1941 18.5159 15.6581 18.5211 15.6271Z" fill="#1D1E20"/>
<path d="M33.1312 29.9312C33.1312 29.926 33.1312 29.9208 33.1312 29.9157C33.1312 29.8742 33.126 29.8328 33.126 29.7862C33.095 28.7612 33.0277 26.3642 30.7808 25.598C30.7653 25.5928 30.7446 25.5876 30.729 25.5824C28.3941 24.9871 26.4527 23.641 26.432 23.6255C26.1162 23.4029 25.6813 23.4805 25.4587 23.7963C25.2361 24.1121 25.3138 24.547 25.6296 24.7696C25.7176 24.8317 27.7781 26.2658 30.3563 26.9285C31.5625 27.3582 31.6971 28.6473 31.7334 29.8277C31.7334 29.8742 31.7334 29.9157 31.7386 29.9571C31.7437 30.423 31.7127 31.1426 31.6298 31.5568C30.7911 32.0331 27.5037 33.6794 22.5026 33.6794C17.5222 33.6794 14.2141 32.0279 13.3702 31.5516C13.2874 31.1375 13.2511 30.4178 13.2615 29.9519C13.2615 29.9105 13.2667 29.8691 13.2667 29.8225C13.3029 28.6421 13.4375 27.353 14.6438 26.9233C17.222 26.2606 19.2825 24.8214 19.3705 24.7644C19.6863 24.5418 19.7639 24.107 19.5413 23.7912C19.3187 23.4753 18.8838 23.3977 18.568 23.6203C18.5473 23.6358 16.6162 24.9819 14.271 25.5773C14.2503 25.5824 14.2348 25.5876 14.2192 25.5928C11.9724 26.3642 11.9051 28.7612 11.874 29.7811C11.874 29.8277 11.874 29.8691 11.8688 29.9105C11.8688 29.9157 11.8688 29.9208 11.8688 29.926C11.8637 30.1952 11.8585 31.5775 12.1329 32.2712C12.1846 32.4059 12.2778 32.5197 12.4021 32.5974C12.5574 32.7009 16.2797 35.0721 22.5078 35.0721C28.7358 35.0721 32.4582 32.6958 32.6135 32.5974C32.7326 32.5197 32.8309 32.4059 32.8827 32.2712C33.1416 31.5827 33.1364 30.2004 33.1312 29.9312Z" fill="#1D1E20"/>
</svg>
