<svg width="10" height="10" viewBox="0 0 10 10" fill="none" xmlns="http://www.w3.org/2000/svg">
<path d="M9.5 4.99988C9.5 7.4857 7.48539 9.49988 5 9.49988C2.51461 9.49988 0.5 7.4857 0.5 4.99988C0.5 2.51499 2.51468 0.499878 5 0.499878C7.48533 0.499878 9.5 2.51499 9.5 4.99988Z" stroke="#C64B4D"/>
<path d="M4.99756 6.46425C5.24406 6.46425 5.44006 6.66075 5.44006 6.90175C5.44006 7.14275 5.24406 7.33925 5.00256 7.33925C4.76006 7.33925 4.56256 7.14275 4.56256 6.90175C4.56256 6.66075 4.75806 6.46425 4.99756 6.46425ZM4.99756 2.66785C5.23856 2.66785 5.43506 2.86435 5.43506 3.10535V5.31535C5.43506 5.55635 5.23856 5.75285 4.99756 5.75285C4.75656 5.75285 4.56006 5.55635 4.56006 5.31535V3.10535C4.56006 2.86435 4.75656 2.66785 4.99756 2.66785Z" fill="#C64B4D"/>
</svg>
